PathFileType	4	(X/Y/Z)	C:\Users\Basilio\Documents\Thesis Gigler\squatting_fais\c3dfiles\044\SLS_back_pre1\markers_experimental.trc
DataRate	CameraRate	NumFrames	NumMarkers	Units	OrigDataRate	OrigDataStartFrame	OrigNumFrames
200.000000	200.000000	4	68	mm	200.000000	216	1728
Frame#	Time	FHD			LBHD			RBHD			C7			T10			CLAV			LRAD			LRFIN			RSHO			RUPA1			RMUPA			RDUPA			RLEP			RMEP			RUL			LASI			RASI			USACR			LSACR			RSACR			LTHI1			LTHI2			LTHI3			LTHI4			LLFC			LMFC			LTIB1			LTIB2			LTIB3			LTIB4			LLMAL			LMMAL			LHEE			LMT1			LMT2			LMT5			RTHI			RTHI2			RTHI3			RTHI4			RLFC			RMFC			RTIB1			RTIB2			RTIB3			RTIB4			RLMAL			RMMAL			RHEE			RMT1			RMT2			RMT5			RUFIN			LSHO			LUUPA			LMUPA			LDUPA			LLEP			LMEP			LUL			*60			*61			*62			*63			*64			*65			*66			*67			
		X1	Y1	Z1	X2	Y2	Z2	X3	Y3	Z3	X4	Y4	Z4	X5	Y5	Z5	X6	Y6	Z6	X7	Y7	Z7	X8	Y8	Z8	X9	Y9	Z9	X10	Y10	Z10	X11	Y11	Z11	X12	Y12	Z12	X13	Y13	Z13	X14	Y14	Z14	X15	Y15	Z15	X16	Y16	Z16	X17	Y17	Z17	X18	Y18	Z18	X19	Y19	Z19	X20	Y20	Z20	X21	Y21	Z21	X22	Y22	Z22	X23	Y23	Z23	X24	Y24	Z24	X25	Y25	Z25	X26	Y26	Z26	X27	Y27	Z27	X28	Y28	Z28	X29	Y29	Z29	X30	Y30	Z30	X31	Y31	Z31	X32	Y32	Z32	X33	Y33	Z33	X34	Y34	Z34	X35	Y35	Z35	X36	Y36	Z36	X37	Y37	Z37	X38	Y38	Z38	X39	Y39	Z39	X40	Y40	Z40	X41	Y41	Z41	X42	Y42	Z42	X43	Y43	Z43	X44	Y44	Z44	X45	Y45	Z45	X46	Y46	Z46	X47	Y47	Z47	X48	Y48	Z48	X49	Y49	Z49	X50	Y50	Z50	X51	Y51	Z51	X52	Y52	Z52	X53	Y53	Z53	X54	Y54	Z54	X55	Y55	Z55	X56	Y56	Z56	X57	Y57	Z57	X58	Y58	Z58	X59	Y59	Z59	X60	Y60	Z60	X61	Y61	Z61	X62	Y62	Z62	X63	Y63	Z63	X64	Y64	Z64	X65	Y65	Z65	X66	Y66	Z66	X67	Y67	Z67	X68	Y68	Z68	

217	1.08	-214.4316406250001	1793.729858398438	-888.7181396484377	-357.0158081054688	1759.25830078125	-947.143249511719	-379.1098327636719	1742.953002929688	-783.0297851562502	-406.5660095214845	1558.144775390625	-875.7541503906252	-382.3750915527344	1254.711059570313	-878.4609375000002	-260.7319946289063	1539.899047851563	-880.050231933594	nan	nan	nan	217.9737243652344	1586.552124023438	-912.723815917969	-322.7438659667969	1565.193237304688	-716.3419189453126	-172.8843536376953	1541.15966796875	-609.0504150390626	-141.3639678955078	1559.998291015625	-645.0955200195314	-103.9732360839844	1547.447998046875	-599.2329101562501	-41.10502624511719	1555.189331054688	-606.9207763671876	-38.42235565185548	1470.604370117188	-615.1692504882814	194.3370513916016	1570.422485351563	-766.3720703125001	-195.8691864013672	1072.125366210938	-993.2261962890627	-175.7720031738282	1060.614868164063	-774.8042602539065	-357.5526428222657	1112.308959960938	-868.982849121094	-361.8913269042969	1078.774658203125	-895.2186279296877	-355.4252014160157	1082.45166015625	-837.9406738281252	-297.9501647949219	834.8502197265627	-1062.141357421875	-265.5737304687501	756.4601440429689	-1068.90380859375	-217.0577697753907	757.9423217773439	-1065.593383789063	-292.9666442871094	704.0635375976564	-1055.440307617188	-278.3075256347657	544.0487670898439	-1050.719970703125	-261.2091369628907	531.4609985351564	-929.8464355468752	-257.2744140625001	363.6002807617188	-990.7354736328127	-287.1818542480469	322.5386962890626	-1063.53125	-256.0013427734376	318.3658447265626	-1028.701049804688	-271.7999877929688	238.9583435058594	-1003.349670410156	-327.6795043945313	125.0422973632813	-1055.246215820313	-306.1300659179688	130.9369812011719	-971.6750488281252	-388.614959716797	99.09918212890628	-1007.803161621094	-180.6230163574219	59.44270706176759	-985.9503173828127	-179.4261016845703	59.57702636718751	-1032.794311523438	-216.6260833740235	45.75605773925782	-1079.673583984375	-275.8032226562501	790.9016113281252	-695.8001708984376	-235.9609832763672	735.9831542968751	-697.6146850585939	-204.5699768066407	738.0762329101564	-705.5504760742189	-264.2862548828126	657.3796997070314	-711.6739501953126	-275.0034179687501	541.9530639648439	-720.7645874023439	-282.9594116210938	536.7041625976564	-845.1097412109377	-243.0932617187501	410.6651916503907	-747.9404296875001	-317.9147949218751	345.0251464843751	-700.5368041992189	-276.8377990722657	334.8160095214844	-717.9421386718751	-271.2183837890626	283.1832275390626	-744.0820312500001	-349.1163024902344	137.1784362792969	-729.4697875976564	-327.2792968750001	141.0733795166016	-810.604675292969	-408.3157958984376	110.4078598022461	-774.7822875976565	-201.2095184326172	63.1893997192383	-790.337585449219	-198.1730957031251	59.62377166748048	-754.1818847656251	-238.8787994384766	48.68318176269533	-701.3316040039064	197.2220458984376	1553.928833007813	-884.7691040039065	-315.4980163574219	1583.889526367188	-1028.179565429688	-168.4096221923828	1562.064575195313	-1151.963134765625	-131.6011199951172	1573.838134765625	-1117.763549804688	-100.8901672363282	1560.75244140625	-1167.773071289063	-39.81359481811524	1564.14990234375	-1166.264038085938	-43.61290359497071	1482.550903320313	-1158.698364257813	203.1531372070313	1573.08447265625	-1016.83349609375	nan	nan	nan	nan	nan	nan	nan	nan	nan	nan	nan	nan	nan	nan	nan	nan	nan	nan	nan	nan	nan	nan	nan	nan	
218	1.085	-214.3271026611329	1793.737915039063	-888.840026855469	-356.8843688964844	1759.2255859375	-947.3782958984377	-379.1069946289063	1743.03955078125	-783.366394042969	-406.5207824707032	1558.23876953125	-875.9355468750002	-382.4275207519532	1254.740478515625	-878.5808715820315	-260.6467590332032	1539.903930664063	-880.2697753906252	nan	nan	nan	218.0090026855469	1586.492797851563	-913.0191650390627	-322.7356872558594	1565.236328125	-716.4437866210939	-172.8316345214844	1541.16162109375	-609.2758178710939	-141.2238922119141	1560.004272460938	-645.2790527343751	-103.8846969604492	1547.430419921875	-599.5303344726564	-41.10030746459962	1555.151611328125	-607.1680908203126	-38.42208099365235	1470.53125	-615.3791503906251	194.2825317382813	1570.285522460938	-766.6283569335939	-195.9158325195313	1072.146118164063	-993.3457641601565	-175.9686126708985	1060.602783203125	-774.9420166015627	-357.7199707031251	1112.2529296875	-869.105163574219	-362.0736694335938	1078.807983398438	-895.2714843750002	-355.5077514648438	1082.461303710938	-838.0922851562502	-297.9929809570313	834.7483520507815	-1062.140258789063	-265.5700988769532	756.4284667968751	-1068.880859375	-217.028793334961	757.9545288085939	-1065.74169921875	-292.8788146972657	703.9848632812501	-1055.504272460938	-278.0897521972657	543.9890747070314	-1050.860961914063	-260.9964904785157	531.3248901367189	-929.810974121094	-257.1814880371094	363.5059814453126	-990.7803344726565	-286.9243164062501	322.4862670898438	-1063.55859375	-255.7227325439454	318.3201904296876	-1028.75830078125	-271.7414550781251	238.8890075683594	-1003.420471191406	-327.6348571777344	125.0549621582032	-1055.24072265625	-306.1095275878907	130.8583984375	-971.6480102539065	-388.6918029785157	99.22320556640628	-1007.841552734375	-180.6502990722657	59.45068740844728	-985.942321777344	-179.4229888916016	59.5807456970215	-1032.79296875	-216.5605010986329	45.41028213500977	-1079.73291015625	-275.8801574707032	790.8593750000002	-695.8015747070314	-236.0868835449219	736.2911987304689	-697.9468994140626	-204.6107177734376	738.1048583984376	-705.6291503906251	-264.3092346191407	657.3933715820314	-711.7421264648439	-274.9804382324219	541.9409790039064	-720.7674560546876	-282.9687805175782	536.7124633789064	-845.1265258789065	-243.0942840576172	410.6082763671876	-747.9543457031251	-317.9211425781251	344.9810485839844	-700.4848022460939	-276.8255310058594	334.8128967285157	-717.9717407226564	-271.2195129394532	283.2465820312501	-744.0628662109376	-349.1245117187501	137.162094116211	-729.4656982421876	-327.3139343261719	141.0545196533203	-810.615905761719	-408.2621154785157	110.4473876953125	-774.8975219726565	-201.2655181884766	63.18942642211915	-790.2796630859377	-198.1626892089844	59.62376022338869	-754.2208862304689	-238.901596069336	48.58209228515626	-701.3800659179689	197.1533203125001	1553.70166015625	-885.0325927734377	-315.5198669433594	1583.881469726563	-1028.40283203125	-168.3117370605469	1562.165161132813	-1152.089233398438	-131.6304321289063	1573.728759765625	-1117.939697265625	-100.4403381347657	1561.616577148438	-1168.1357421875	-39.82091903686524	1564.1611328125	-1166.5078125	-43.60160446166993	1482.472045898438	-1158.906982421875	203.171371459961	1572.928100585938	-1017.012634277344	nan	nan	nan	nan	nan	nan	nan	nan	nan	nan	nan	nan	nan	nan	nan	nan	nan	nan	nan	nan	nan	nan	nan	nan	
219	1.09	-214.3225860595704	1793.892944335938	-888.9843750000002	-356.8111877441407	1759.18798828125	-947.681091308594	-379.1440734863282	1743.066528320313	-783.5437622070315	-406.4539489746095	1558.249755859375	-876.1179809570315	-382.4837951660157	1254.813110351563	-878.743347167969	-260.5376892089844	1539.935668945313	-880.4871826171877	nan	nan	nan	218.1576843261719	1586.244262695313	-913.3095703125002	-322.6345825195313	1565.268920898438	-716.6355590820314	-172.8090362548828	1541.219848632813	-609.4978637695314	-141.2168273925782	1559.921630859375	-645.5697021484376	-103.738525390625	1547.383056640625	-599.7449951171876	-41.08537673950196	1555.08642578125	-607.4232788085939	-38.38689422607423	1470.609497070313	-615.8717041015626	194.4342193603516	1570.137939453125	-766.9794921875001	-196.0692291259766	1072.124633789063	-993.475769042969	-176.1444244384766	1060.693969726563	-775.047790527344	-357.8328552246094	1112.348388671875	-869.2254638671877	-362.1912231445313	1078.719604492188	-895.3789062500002	-355.6959228515626	1082.435913085938	-838.1541748046877	-298.0310058593751	834.7244262695315	-1062.232666015625	-265.5370788574219	756.3933105468751	-1069.096069335938	-217.0562133789063	757.9742431640626	-1065.861450195313	-292.7938842773438	703.8901367187501	-1055.658081054688	-277.8588867187501	543.9217529296876	-1050.979248046875	-260.9233703613282	531.4190673828126	-929.9241333007815	-257.0346679687501	363.5652465820313	-990.8212890625002	-287.5129089355469	321.8733825683594	-1063.721557617188	-255.6639099121094	318.2770690917969	-1028.75048828125	-271.7322387695313	238.8208923339844	-1003.413513183594	-327.6508178710938	125.0575790405274	-1055.258056640625	-306.1282653808594	130.9498138427735	-971.667663574219	-388.6664123535157	99.1570739746094	-1007.86083984375	-180.6461181640625	59.40913772583009	-985.8955078125002	-179.4096221923828	59.55947113037111	-1032.720703125	-216.5631561279297	45.43524169921876	-1079.738159179688	-275.9746093750001	790.8052978515627	-695.9941406250001	-236.0420379638672	736.0089111328126	-697.8907470703126	-204.646224975586	738.1443481445314	-705.6489257812501	-264.2988586425782	657.3559570312501	-711.7705078125001	-274.9583129882813	541.9314575195314	-720.8364868164064	-282.9203491210938	536.6489257812501	-845.1967773437502	-243.0565948486329	410.638641357422	-748.0163574218751	-317.9422302246094	345.0795898437501	-700.5371093750001	-276.7866821289063	334.8653564453126	-718.0251464843751	-271.2540893554688	283.1943664550782	-744.0551757812501	-349.1205444335938	137.1782989501953	-729.4493408203126	-327.3333129882813	141.0247650146485	-810.609802246094	-408.3240966796876	110.4092559814453	-774.7767333984377	-201.2554168701172	63.25788497924806	-790.3110351562502	-198.1412963867188	59.58510208129884	-754.2223510742189	-238.8674621582032	48.52919387817384	-701.3087158203126	197.2696228027344	1553.458862304688	-885.330505371094	-315.5758056640626	1583.8837890625	-1028.560913085938	-168.2817535400391	1562.187866210938	-1152.298706054688	-131.6197357177735	1573.66015625	-1118.117919921875	-100.419418334961	1561.586303710938	-1168.355102539063	-39.87707901000977	1564.162719726563	-1166.627685546875	-43.62151336669923	1482.428833007813	-1159.081420898438	203.1348724365235	1572.86181640625	-1017.245422363281	nan	nan	nan	nan	nan	nan	nan	nan	nan	nan	nan	nan	nan	nan	nan	nan	nan	nan	nan	nan	nan	nan	nan	nan	
220	1.095	-214.3257904052735	1793.922973632813	-889.143005371094	-356.7139892578126	1759.140258789063	-947.898620605469	-379.1785888671876	1743.02490234375	-783.7341308593752	-406.4259643554689	1558.334106445313	-876.3741455078127	-382.5565795898438	1254.8017578125	-878.8302001953127	-260.5281372070313	1539.894653320313	-880.7305297851565	nan	nan	nan	218.1797332763672	1586.09521484375	-913.5626220703127	-322.5857849121094	1565.298706054688	-716.8590698242189	-172.710922241211	1541.230712890625	-609.7628784179689	-141.1475219726563	1559.89404296875	-645.7252197265626	-103.6976394653321	1547.260009765625	-599.9730834960939	-41.05773544311524	1555.0439453125	-607.5917358398439	-38.40143585205079	1470.582763671875	-616.1177368164064	194.5859527587891	1570.027709960938	-767.2964477539064	-196.2259826660157	1072.0703125	-993.6147460937502	-176.2363586425782	1060.632446289063	-775.2224731445315	-357.8816223144532	1112.363403320313	-869.358825683594	-362.2833862304688	1078.717529296875	-895.5012207031252	-355.9045104980469	1082.505981445313	-838.2650146484377	-298.0470275878907	834.5842285156252	-1062.310913085938	-265.4949645996094	756.3786621093751	-1069.220825195313	-217.0261688232422	757.9428710937501	-1065.968505859375	-292.5663452148438	703.5346679687501	-1055.80126953125	-277.6488037109376	543.8265991210939	-1051.058837890625	-260.6270751953126	531.2825927734376	-930.0386962890627	-256.7902832031251	363.3155517578126	-990.8848876953127	-287.3155517578126	321.7827758789063	-1063.78466796875	-255.6231842041016	318.2136840820313	-1028.827758789063	-271.6610107421876	238.7576599121094	-1003.451171875	-327.4193725585938	125.3996658325196	-1055.098022460938	-306.1145324707032	130.935775756836	-971.6335449218752	-388.6370849609376	99.14849853515628	-1007.861877441406	-180.6237335205078	59.3901824951172	-985.8418579101565	-179.3751525878907	59.53048706054689	-1032.677124023438	-216.6184082031251	45.70189666748048	-1079.655029296875	-275.9709167480469	790.7891845703127	-695.9582519531251	-236.1681518554688	736.2650756835939	-698.0611572265626	-204.6396636962891	738.1677856445314	-705.5466918945314	-264.2626647949219	657.3354492187501	-711.7838745117189	-274.9408874511719	541.8820800781251	-720.8864135742189	-282.9163208007813	536.6641235351564	-845.2554321289065	-243.0590057373047	410.6032104492189	-748.0639038085939	-317.9080810546876	345.0682678222657	-700.6582031250001	-276.6988525390626	334.8123779296876	-718.1311645507814	-271.2324218750001	283.2194824218751	-744.1357421875001	-349.1219177246094	137.1954345703125	-729.4530029296876	-327.3001708984376	141.0686340332032	-810.6212158203127	-408.3090209960939	110.401725769043	-774.8292236328127	-201.1941680908204	63.21310424804689	-790.4085693359377	-198.0591125488282	59.55294799804689	-754.2272338867189	-238.8800506591797	48.57711791992189	-701.3399047851564	197.2239227294922	1552.236328125	-885.5981445312502	-315.5248413085938	1583.866577148438	-1028.728393554688	-168.22412109375	1562.155883789063	-1152.557861328125	-131.619873046875	1573.626098632813	-1118.2607421875	-100.2280883789063	1561.899047851563	-1168.608764648438	-39.76324081420899	1563.965209960938	-1166.786010742188	-43.68610000610352	1482.3974609375	-1159.306030273438	203.2656555175782	1572.741455078125	-1017.532775878906	nan	nan	nan	nan	nan	nan	nan	nan	nan	nan	nan	nan	nan	nan	nan	nan	nan	nan	nan	nan	nan	nan	nan	nan	
